<svg id="Layer_1" data-name="Layer 1" xmlns="http://www.w3.org/2000/svg" viewBox="0 0 249.26 100.62"><defs><style>.cls-1{fill:#231f20;}.cls-2{fill:#009567;}.cls-3{fill:#fff;}.cls-4{fill:#54b948;}.cls-5{fill:#f58220;}</style></defs><title>etr uus logo</title><path class="cls-1" d="M31.46,193.29A5.09,5.09,0,0,1,26,187.92v-9.29H24v-3.57h2v-5.55H30.7v5.55H34v3.57H30.7v9c0,1.08.5,1.69,1.62,1.69H34v4Z" transform="translate(-24.03 -99.69)"/><path class="cls-1" d="M48.78,180.14a3.5,3.5,0,0,0-6.27,0,5.19,5.19,0,0,0-.43,2h7.13a5.17,5.17,0,0,0-.43-2m-6.7,5.22a3.88,3.88,0,0,0,4.11,4.18,5.2,5.2,0,0,0,4.25-1.76l2.85,2.77a8.94,8.94,0,0,1-7.13,3c-4.43,0-8.68-2-8.68-9.62,0-6.12,3.31-9.58,8.18-9.58,5.22,0,8.18,3.82,8.18,9v2.09Z" transform="translate(-24.03 -99.69)"/><path class="cls-1" d="M68.59,179.63A3.13,3.13,0,0,0,63.08,182v11.31H58.4V174.52H63v1.8a6.35,6.35,0,0,1,4.72-2,5.66,5.66,0,0,1,4.43,1.77Z" transform="translate(-24.03 -99.69)"/><polygon class="cls-1" points="59.11 93.6 55.44 93.6 48.52 74.83 53.46 74.83 57.27 86.43 61.06 74.83 65.99 74.83 59.11 93.6"/><path class="cls-1" d="M93,174.52h4.68v18.77H93Zm-.07-7h4.79v3.82H93Z" transform="translate(-24.03 -99.69)"/><path class="cls-1" d="M109.37,193.5c-3,0-5.62-.32-8-2.7l3.06-3.06a6.82,6.82,0,0,0,5,1.77c1.62,0,3.32-.54,3.32-1.95,0-.94-.5-1.59-2-1.73l-3-.29c-3.39-.32-5.48-1.8-5.48-5.26,0-3.89,3.42-6,7.24-6,2.92,0,5.37.5,7.17,2.2l-2.88,2.92a6.52,6.52,0,0,0-4.36-1.26c-1.87,0-2.67.86-2.67,1.8,0,.68.29,1.48,1.94,1.62l3,.29c3.71.36,5.58,2.34,5.58,5.51,0,4.14-3.53,6.12-8,6.12" transform="translate(-24.03 -99.69)"/><path class="cls-1" d="M131.88,180.14a3.5,3.5,0,0,0-6.27,0,5.19,5.19,0,0,0-.43,2h7.13a5.17,5.17,0,0,0-.43-2m-6.7,5.22a3.88,3.88,0,0,0,4.11,4.18,5.2,5.2,0,0,0,4.25-1.76l2.85,2.77a8.94,8.94,0,0,1-7.13,3c-4.43,0-8.68-2-8.68-9.62,0-6.12,3.31-9.58,8.18-9.58,5.22,0,8.18,3.82,8.18,9v2.09Z" transform="translate(-24.03 -99.69)"/><path class="cls-1" d="M151.69,179.63a3.13,3.13,0,0,0-5.51,2.34v11.31H141.5V174.52h4.58v1.8a6.35,6.35,0,0,1,4.72-2,5.66,5.66,0,0,1,4.43,1.77Z" transform="translate(-24.03 -99.69)"/><path class="cls-1" d="M167.29,185.36h-3.71c-1.69,0-2.63.79-2.63,2.13s.86,2.16,2.7,2.16a3.72,3.72,0,0,0,3-.9,3.08,3.08,0,0,0,.69-2.38Zm.11,7.93v-1.62a5.71,5.71,0,0,1-4.61,1.8,6.4,6.4,0,0,1-4.79-1.66,6,6,0,0,1-1.55-4.21c0-3,2.05-5.44,6.41-5.44h4.43v-.94c0-2.05-1-3-3.5-3a4,4,0,0,0-3.6,1.55l-3-2.92c1.84-2,3.64-2.59,6.77-2.59,5.26,0,8,2.23,8,6.63v12.36Z" transform="translate(-24.03 -99.69)"/><path class="cls-1" d="M177.19,167.49H182v3.82h-4.79Zm-.72,32.82h-2.66v-4h1.8c1.19,0,1.66-.58,1.66-1.69V174.52H182v20.43a5.1,5.1,0,0,1-5.48,5.37" transform="translate(-24.03 -99.69)"/><path class="cls-1" d="M196.93,185.36h-3.71c-1.69,0-2.63.79-2.63,2.13s.86,2.16,2.7,2.16a3.72,3.72,0,0,0,3-.9,3.08,3.08,0,0,0,.69-2.38Zm.11,7.93v-1.62a5.71,5.71,0,0,1-4.61,1.8,6.4,6.4,0,0,1-4.79-1.66,6,6,0,0,1-1.55-4.21c0-3,2.05-5.44,6.41-5.44h4.43v-.94c0-2.05-1-3-3.5-3a4,4,0,0,0-3.6,1.55l-3-2.92c1.84-2,3.64-2.59,6.77-2.59,5.26,0,8,2.23,8,6.63v12.36Z" transform="translate(-24.03 -99.69)"/><path class="cls-1" d="M214,178.51c-2.81,0-3.17,2.31-3.17,5.37s.36,5.4,3.17,5.4,3.21-2.34,3.21-5.4-.4-5.37-3.21-5.37m3.31,14.77v-1.77a5.63,5.63,0,0,1-4.65,2,6.63,6.63,0,0,1-4.61-1.69c-1.87-1.87-1.91-5.12-1.91-7.92s0-6,1.91-7.89a6.54,6.54,0,0,1,4.58-1.69,5.62,5.62,0,0,1,4.58,1.87v-8.54h4.68v25.65Z" transform="translate(-24.03 -99.69)"/><rect class="cls-1" x="203.16" y="88.27" width="5.37" height="5.33"/><path class="cls-1" d="M248.26,180.14a3.5,3.5,0,0,0-6.27,0,5.17,5.17,0,0,0-.43,2h7.13a5.18,5.18,0,0,0-.43-2m-6.7,5.22a3.88,3.88,0,0,0,4.11,4.18,5.2,5.2,0,0,0,4.25-1.76l2.85,2.77a8.93,8.93,0,0,1-7.13,3c-4.43,0-8.68-2-8.68-9.62,0-6.12,3.31-9.58,8.18-9.58,5.22,0,8.18,3.82,8.18,9v2.09Z" transform="translate(-24.03 -99.69)"/><path class="cls-1" d="M268.25,180.14a3.5,3.5,0,0,0-6.27,0,5.17,5.17,0,0,0-.43,2h7.13a5.19,5.19,0,0,0-.43-2m-6.7,5.22a3.88,3.88,0,0,0,4.11,4.18,5.2,5.2,0,0,0,4.25-1.76l2.85,2.77a8.94,8.94,0,0,1-7.13,3c-4.43,0-8.68-2-8.68-9.62,0-6.12,3.31-9.58,8.18-9.58,5.22,0,8.18,3.82,8.18,9v2.09Z" transform="translate(-24.03 -99.69)"/><path class="cls-2" d="M109.94,128.41A28.72,28.72,0,1,1,81.22,99.69a28.72,28.72,0,0,1,28.72,28.72" transform="translate(-24.03 -99.69)"/><path class="cls-3" d="M82.43,145.92a3,3,0,0,1-2.16-.89L65.81,130.58a3.07,3.07,0,0,1,0-4.33l14.45-14.46a3.07,3.07,0,0,1,4.33,0l.48.47a3.07,3.07,0,0,1,0,4.33L76.65,125H94.46a3.06,3.06,0,0,1,3.06,3.06v.67a3.06,3.06,0,0,1-3.06,3.06H76.65l8.42,8.42a3.07,3.07,0,0,1,0,4.33l-.48.48a3,3,0,0,1-2.16.89" transform="translate(-24.03 -99.69)"/><path class="cls-4" d="M177.39,128.41a28.72,28.72,0,1,1-28.72-28.72,28.72,28.72,0,0,1,28.72,28.72" transform="translate(-24.03 -99.69)"/><path class="cls-3" d="M148.33,144.72a3.07,3.07,0,0,1-3.06-3.06V123.84l-8.42,8.42a3.07,3.07,0,0,1-4.33,0l-.48-.47a3.07,3.07,0,0,1,0-4.33L146.5,113a3.07,3.07,0,0,1,4.33,0l14.46,14.46a3.06,3.06,0,0,1,0,4.33l-.47.47a3.07,3.07,0,0,1-4.33,0l-8.42-8.42v17.81a3.06,3.06,0,0,1-3.06,3.06Z" transform="translate(-24.03 -99.69)"/><path class="cls-5" d="M244.83,128.41a28.72,28.72,0,1,1-28.72-28.72,28.72,28.72,0,0,1,28.72,28.72" transform="translate(-24.03 -99.69)"/><path class="cls-3" d="M214.9,145.92a3,3,0,0,1-2.16-.89l-.47-.47a3.07,3.07,0,0,1,0-4.33l8.42-8.42H202.87a3.06,3.06,0,0,1-3.06-3.06v-.67a3.06,3.06,0,0,1,3.06-3.06h17.81l-8.42-8.42a3.07,3.07,0,0,1,0-4.33l.47-.48a3.07,3.07,0,0,1,4.33,0l14.46,14.46a3.07,3.07,0,0,1,0,4.33L217.06,145a3,3,0,0,1-2.16.89" transform="translate(-24.03 -99.69)"/></svg>